<svg xmlns="http://www.w3.org/2000/svg" preserveAspectRatio="xMidYMid meet" viewBox="0 0 77 76">
  <path id="联合_1" data-name="联合 1" d="M34,71a5,5,0,0,1,2.671-4.426,75.365,75.365,0,0,0-.812-11.312A83.818,83.818,0,0,0,32.779,43c-.093,0-.186,0-.279,0a11.482,11.482,0,0,1-3.815-.648,35.8,35.8,0,0,0-4.759,6.611,31.909,31.909,0,0,0-2.5,6.61,6.973,6.973,0,1,1-2.842-1.394,32.054,32.054,0,0,0,4.15-5.852,35.875,35.875,0,0,0,2.823-7.661,11.541,11.541,0,0,1-3.648-4.685,11.69,11.69,0,0,0-4.637.275A11.564,11.564,0,0,0,14,37.981c0,.006,0,.012,0,.018a7,7,0,1,1-8.412-6.858l-.012,0a26.809,26.809,0,0,0,3.352-6.469,24.165,24.165,0,0,0,1.024-6.733,5,5,0,1,1,8.556-.771,13.853,13.853,0,0,0,2.419,3.721,12.761,12.761,0,0,0,3.49,2.433A11.464,11.464,0,0,1,32.5,20q.519,0,1.026.045a13.768,13.768,0,0,0,2.433-4.526,12.406,12.406,0,0,0,.151-4.8,5.751,5.751,0,1,1,8.565-5.906l.014-.025A30.85,30.85,0,0,0,50.8,9.69a27.911,27.911,0,0,0,7.012,2.7,7,7,0,1,1-.642,10.669,28.955,28.955,0,0,0-6.891,2.462,32.034,32.034,0,0,0-6.346,4.684A11.627,11.627,0,0,1,44,31.5q0,.237-.01.472a100.36,100.36,0,0,0,13.294,3.214,91.414,91.414,0,0,0,13.6.988,3.5,3.5,0,1,1,3.012,5.8A34.842,34.842,0,0,0,69.135,48.6a38.458,38.458,0,0,0-2.989,8.047,7,7,0,1,1-10.99-1.7,8.908,8.908,0,0,0-1-3.246,10.006,10.006,0,0,0-2.671-2.808,4.539,4.539,0,0,1-1.929.008,58.113,58.113,0,0,0-3.938,9.044,64.311,64.311,0,0,0-2.3,10.523A5,5,0,1,1,34,71Zm6.6-4.739a62.155,62.155,0,0,0,3.726-8.736A58.883,58.883,0,0,0,46.6,46.743a4.51,4.51,0,0,1-.308-3.837,7.526,7.526,0,0,0-1.859-2.61,8.223,8.223,0,0,0-3.074-1.461,11.521,11.521,0,0,1-5.021,3.51A83.851,83.851,0,0,0,37.2,55.051a75.4,75.4,0,0,0,2.731,11.035A4.968,4.968,0,0,1,40.6,66.261Zm23.108-12.2a36.928,36.928,0,0,0,4.231-6.1A34.639,34.639,0,0,0,70.7,40.6a3.5,3.5,0,0,1-.464-.836,91.47,91.47,0,0,0-13.163-3.238A100.55,100.55,0,0,0,43.3,35.473q-.09.244-.191.483a8.812,8.812,0,0,0,2.2,3.3,7.521,7.521,0,0,0,2.891,1.377,4.5,4.5,0,0,1,6.012,6.419,10.28,10.28,0,0,0,1.121,3.968,8.806,8.806,0,0,0,2.216,2.422,7.015,7.015,0,0,1,6.165.618ZM16.871,34.96a11.87,11.87,0,0,0,4.162-2.516l.007.022Q21,31.988,21,31.5a11.446,11.446,0,0,1,1.465-5.62,13.229,13.229,0,0,0-2.512-4.052,13.675,13.675,0,0,0-3.492-2.474,5.017,5.017,0,0,1-3.666.5,23.32,23.32,0,0,0-2.577,5.234,25.719,25.719,0,0,0-1.06,6.251,7.021,7.021,0,0,1,4.329,4.025A11.227,11.227,0,0,0,16.871,34.96Zm26.12-8.176a31.138,31.138,0,0,0,6.647-2.457,28.752,28.752,0,0,0,5.7-4.158,7.03,7.03,0,0,1,.244-4.979,27.569,27.569,0,0,0-5.469-4.326,29.191,29.191,0,0,0-6-2.487,5.753,5.753,0,0,1-4.464,3.087l.026.007h0a12.619,12.619,0,0,0-2.409,4.4,13.721,13.721,0,0,0-.164,5.088A11.542,11.542,0,0,1,42.992,26.784Z" fill="#fff"/>
</svg>
