<svg xmlns="http://www.w3.org/2000/svg" xmlns:xlink="http://www.w3.org/1999/xlink" preserveAspectRatio="xMidYMid meet" viewBox="0 0 1858.01 994.188">
  <defs>
    <linearGradient id="linear-gradient" y1="1" x2="0.915" y2="0.18" gradientUnits="objectBoundingBox">
      <stop offset="0" stop-color="#457558"/>
      <stop offset="1" stop-color="#bda567"/>
    </linearGradient>
    <linearGradient id="linear-gradient-2" x1="0.5" x2="0.5" y2="1.427" gradientUnits="objectBoundingBox">
      <stop offset="0" stop-color="#bda567"/>
      <stop offset="1" stop-color="#883614"/>
    </linearGradient>
  </defs>
  <g id="组_8" data-name="组 8" transform="translate(-52.843 34.104) rotate(-7)">
    <g id="组_6" data-name="组 6" transform="translate(3.184 -15)">
      <path id="路径_3" data-name="路径 3" d="M476.929,570.777C459.043,477.289,301.559,399.205,222.6,461.935" transform="translate(-285.18 598.065) rotate(-90)" fill="none" stroke="#bda567" stroke-width="0.7"/>
      <path id="路径_22" data-name="路径 22" d="M-593.924,1196.855c15.417-17.942,65.459-21.734,83.4-6.316" transform="translate(-525.485 362.496) rotate(-90)" fill="none" stroke="#bda567" stroke-width="0.7"/>
      <path id="路径_24" data-name="路径 24" d="M-593.924,1163.17c12.077-43.135,94.9-89.723,138.032-77.646" transform="translate(-491.799 362.496) rotate(-90)" fill="none" stroke="#bda567" stroke-width="0.7"/>
      <path id="路径_33" data-name="路径 33" d="M53.4,2426.07c-4.861,8.742-25.264,14.562-34,9.7" transform="translate(-956.488 574.789) rotate(-90)" fill="none" stroke="#bda567" stroke-width="0.7"/>
      <path id="路径_37" data-name="路径 37" d="M0,0C28.978,79.384,150.767,132.348,202.979,88.256" transform="matrix(0.574, -0.819, 0.819, 0.574, 1469.582, 522.498)" fill="none" stroke="#bda567" stroke-width="0.7"/>
      <path id="路径_50" data-name="路径 50" d="M-19,2018.236c9.195-29.3,88.294-43.887,116.709-22.385" transform="translate(-818.669 561.5) rotate(-90)" fill="none" stroke="#bda567" stroke-width="0.7"/>
      <path id="路径_65" data-name="路径 65" d="M-21.631,1976.564c-12.054-19.577-.764-67.027,18.816-79.084" transform="translate(-773.521 558.87) rotate(-90)" fill="none" stroke="#bda567" stroke-width="0.7"/>
      <path id="路径_80" data-name="路径 80" d="M440.237,3027.776c-14.541-11.344-19.342-50.164-8-64.706" transform="translate(-1142.366 715.515) rotate(-90)" fill="none" stroke="#bda567" stroke-width="0.7"/>
      <path id="路径_81" data-name="路径 81" d="M429.311,3016.505c-23.562-10.834-42.649-62.43-31.814-86" transform="translate(-1131.095 704.589) rotate(-90)" fill="none" stroke="#bda567" stroke-width="0.7"/>
      <path id="路径_89" data-name="路径 89" d="M-3.192,868.194C8.923,846.312,59.919,831.659,81.8,843.773" transform="translate(-407.277 566.972) rotate(-90)" fill="none" stroke="#bda567" stroke-width="0.7"/>
      <path id="路径_91" data-name="路径 91" d="M-50.244,883.437c-14.307,21.246-67.636,31.654-88.881,17.347" transform="translate(-422.52 519.92) rotate(-90)" fill="none" stroke="#bda567" stroke-width="0.7"/>
      <path id="路径_134" data-name="路径 134" d="M338.9,881.511c6.505,16.335-8.239,50.6-24.575,57.1" transform="translate(-421.854 676.877) rotate(-90)" fill="none" stroke="#bda567" stroke-width="0.7"/>
      <path id="路径_136" data-name="路径 136" d="M352,948.285c-5.333-64.217,126.532-166.051,219.777-169.724" transform="translate(-488.628 689.864) rotate(-90)" fill="none" stroke="#bda567" stroke-width="0.7"/>
      <path id="路径_141" data-name="路径 141" d="M328.5,862.565c-16,1.688-42.539-19.786-44.226-35.79" transform="translate(-402.907 666.474) rotate(-90)" fill="none" stroke="#bda567" stroke-width="0.7"/>
      <path id="路径_145" data-name="路径 145" d="M351.909,878.3c9.267-8.706,36.226-7.863,44.931,1.4" transform="translate(-418.643 689.887) rotate(-90)" fill="none" stroke="#bda567" stroke-width="0.7"/>
      <path id="路径_151" data-name="路径 151" d="M595.889,1188.246c2.58-14.869,28.753-33.3,43.622-30.725" transform="translate(-517.308 774.338) rotate(-90)" fill="none" stroke="#bda567" stroke-width="0.7"/>
      <path id="路径_152" data-name="路径 152" d="M559.793,1204.64c2.41,29.685-38.5,77.829-68.186,80.235" transform="translate(-533.702 738.242) rotate(-90)" fill="none" stroke="#bda567" stroke-width="0.7"/>
      <path id="路径_155" data-name="路径 155" d="M593.9,1105.893c-18.861-55.755,36.477-167.672,92.229-186.533" transform="translate(-434.955 772.346) rotate(-90)" fill="none" stroke="#bda567" stroke-width="0.7"/>
      <path id="路径_173" data-name="路径 173" d="M-270.532,794.656c-53.036,128.883-237.806,168.8-361.556,74.563" transform="translate(-393.88 349.285) rotate(-90)" fill="none" stroke="#bda567" stroke-width="0.7"/>
      <path id="路径_201" data-name="路径 201" d="M-488.5,711.733c61.663-44.432,220.805-18.585,265.237,43.078" transform="translate(-355.365 398.987) rotate(-90)" fill="none" stroke="#bda567" stroke-width="0.7"/>
      <path id="路径_205" data-name="路径 205" d="M200.692,2332.307c19.426-31.987,96.551-50.838,128.542-31.412" transform="translate(-910.437 637.544) rotate(-90)" fill="none" stroke="#bda567" stroke-width="0.7"/>
      <path id="路径_209" data-name="路径 209" d="M200.692,2346.777c33.536-24,119.839-9.7,143.84,23.84" transform="translate(-924.907 637.544) rotate(-90)" fill="none" stroke="#bda567" stroke-width="0.7"/>
      <path id="路径_216" data-name="路径 216" d="M184.477,2304.73c-23.443-13.1-38.948-67.929-25.842-91.37" transform="translate(-882.861 621.329) rotate(-90)" fill="none" stroke="#bda567" stroke-width="0.7"/>
      <path id="路径_226" data-name="路径 226" d="M-499.232,1075.2c-54.6-36.4-81.908-172.905-45.508-227.509" transform="translate(-410.147 373.783) rotate(-90)" fill="none" stroke="#bda567" stroke-width="0.7"/>
      <path id="路径_228" data-name="路径 228" d="M-525.074,1095.209c-59.614-16.275-124.629-130.1-108.358-189.715" transform="translate(-430.155 347.942) rotate(-90)" fill="none" stroke="#bda567" stroke-width="0.7"/>
      <path id="路径_236" data-name="路径 236" d="M-466.368,1195.64c23.514,9.422,44.648,58.834,35.223,82.347" transform="translate(-530.586 406.648) rotate(-90)" fill="none" stroke="#bda567" stroke-width="0.7"/>
      <path id="路径_237" data-name="路径 237" d="M-466.368,1195.64c14.667,6.853,26.39,39.134,19.539,53.8" transform="translate(-530.586 406.648) rotate(-90)" fill="none" stroke="#bda567" stroke-width="0.7"/>
      <path id="路径_247" data-name="路径 247" d="M452.429,231.421c51.346.109,128.2,77.289,128.092,128.635" transform="translate(-196.831 724.681) rotate(-90)" fill="none" stroke="#bda567" stroke-width="0.7"/>
      <path id="路径_252" data-name="路径 252" d="M385.053,265.827c-8.2,24.9-57.857,49.942-82.756,41.738" transform="translate(-208.74 672.714) rotate(-90)" fill="none" stroke="#bda567" stroke-width="0.7"/>
      <path id="路径_254" data-name="路径 254" d="M428.863,265.509c49.928-7.473,136.029,56.21,143.5,106.138" transform="translate(-208.422 716.524) rotate(-90)" fill="none" stroke="#bda567" stroke-width="0.7"/>
      <path id="路径_268" data-name="路径 268" d="M-142.922,1525.869c33.471-5.2,91.481,37.2,96.684,70.669" transform="translate(-644.741 518.606) rotate(-90)" fill="none" stroke="#bda567" stroke-width="0.7"/>
      <path id="路径_270" data-name="路径 270" d="M-142.922,1526.1c47.006,40.977,56.05,172.946,15.073,219.952" transform="translate(-644.972 518.606) rotate(-90)" fill="none" stroke="#bda567" stroke-width="0.7"/>
      <path id="路径_274" data-name="路径 274" d="M-142.922,1483.289c18.706-49.347,120.782-95.306,170.128-76.606" transform="translate(-602.161 518.606) rotate(-90)" fill="none" stroke="#bda567" stroke-width="0.7"/>
      <path id="路径_292" data-name="路径 292" d="M-201.759,1933.375c-3.486-24.866,28.587-67.4,53.454-70.885" transform="translate(-761.41 498.149) rotate(-90)" fill="none" stroke="#bda567" stroke-width="0.7"/>
      <path id="路径_293" data-name="路径 293" d="M-201.621,1970.9c25.4,14.156,42.248,73.494,28.089,98.889" transform="translate(-798.935 498.288) rotate(-90)" fill="none" stroke="#bda567" stroke-width="0.7"/>
      <path id="路径_310" data-name="路径 310" d="M171.264,923.064c19.053-92.032,272.016-162.4,366.579-143.858" transform="translate(-488.058 655.93) rotate(-90)" fill="none" stroke="#bda567" stroke-width="0.7"/>
      <path id="路径_332" data-name="路径 332" d="M656.01,500.606c11.242-7.619,39.534-2.182,47.153,9.061" transform="translate(-288.781 795.148) rotate(-90)" fill="none" stroke="#bda567" stroke-width="0.7"/>
      <path id="路径_344" data-name="路径 344" d="M650.659,476.752c-10.725-8.716-13.736-37.875-5.021-48.6" transform="translate(-264.928 789.798) rotate(-90)" fill="none" stroke="#bda567" stroke-width="0.7"/>
      <path id="路径_358" data-name="路径 358" d="M-171.973,1961.42c36.54,29.188,47.567,127.784,18.377,164.328" transform="translate(-795.654 508.55) rotate(-90)" fill="none" stroke="#bda567" stroke-width="0.7"/>
      <path id="路径_372" data-name="路径 372" d="M287.948,408.452c-14.5-17.013-10.738-64.288,6.274-78.791" transform="translate(-230.835 664.639) rotate(-90)" fill="none" stroke="#bda567" stroke-width="0.7"/>
      <path id="路径_377" data-name="路径 377" d="M344.19,488.408c-18.8-57.651-185.495-82.216-238.281-33.947" transform="translate(-235.578 606.982) rotate(-90)" fill="none" stroke="#bda567" stroke-width="0.7"/>
      <path id="路径_381" data-name="路径 381" d="M179.547,2514.976c-41.211-26.056-63.944-126.953-37.889-168.166" transform="translate(-929.053 613.269) rotate(-90)" fill="none" stroke="#bda567" stroke-width="0.7"/>
      <path id="路径_383" data-name="路径 383" d="M205.481,2604c20.227,9.017,37.035,52.891,28.015,73.114" transform="translate(-1018.077 639.202) rotate(-90)" fill="none" stroke="#bda567" stroke-width="0.7"/>
      <path id="路径_386" data-name="路径 386" d="M420.374,246.3c-12.714,34.517-83.56,67.221-118.077,54.508" transform="translate(-201.98 672.714) rotate(-90)" fill="none" stroke="#bda567" stroke-width="0.7"/>
      <path id="路径_388" data-name="路径 388" d="M482.882,246.3c45.417,2.145,110.326,73.49,108.18,118.908" transform="translate(-201.98 735.222) rotate(-90)" fill="none" stroke="#bda567" stroke-width="0.7"/>
      <path id="路径_392" data-name="路径 392" d="M-315.7,1348.67c71.425-52.458,81.515-223.542,48.614-263.461" transform="translate(-608.364 391.774) rotate(-90)" fill="none" stroke="#bda567" stroke-width="0.7"/>
      <path id="路径_395" data-name="路径 395" d="M-213.193,1298.9c18.158-23.009,79.909-30.287,102.918-12.129" transform="translate(-558.595 494.282) rotate(-90)" fill="none" stroke="#bda567" stroke-width="0.7"/>
      <path id="路径_403" data-name="路径 403" d="M-227.5,1286.22c-19.821-37.24-18.226-146.1,2.658-181.44" transform="translate(-545.913 484.491) rotate(-90)" fill="none" stroke="#bda567" stroke-width="0.7"/>
      <path id="路径_405" data-name="路径 405" d="M-213.193,1305.143c31.013-21.747,110.154-7.853,131.9,23.16" transform="translate(-564.837 494.282) rotate(-90)" fill="none" stroke="#bda567" stroke-width="0.7"/>
      <path id="路径_410" data-name="路径 410" d="M-286.382,1249.276c-50.868,4.433-133.82-65.216-138.255-116.086" transform="translate(-508.97 421.093) rotate(-90)" fill="none" stroke="#bda567" stroke-width="0.7"/>
      <path id="路径_415" data-name="路径 415" d="M-282.181,1310.73c-24.645,27.482-102.836,31.738-130.318,7.094" transform="translate(-570.423 425.294) rotate(-90)" fill="none" stroke="#bda567" stroke-width="0.7"/>
      <path id="路径_419" data-name="路径 419" d="M-228.473,1212.184c-37.6-36.858-38.719-148.55-1.861-186.154" transform="translate(-471.877 479.002) rotate(-90)" fill="none" stroke="#bda567" stroke-width="0.7"/>
      <path id="路径_443" data-name="路径 443" d="M202.079,1984.9c-9.293,7.14-33.936,3.9-41.072-5.388" transform="translate(-801.916 623.808) rotate(-90)" fill="none" stroke="#bda567" stroke-width="0.7"/>
      <path id="路径_450" data-name="路径 450" d="M223.822,1983.792c10.054-10.01,40.159-9.958,50.175.1" transform="translate(-800.81 645.551) rotate(-90)" fill="none" stroke="#bda567" stroke-width="0.7"/>
      <path id="路径_454" data-name="路径 454" d="M223.822,1896.023c.913-70.218,107.615-174.182,177.836-173.266" transform="translate(-713.041 645.551) rotate(-90)" fill="none" stroke="#bda567" stroke-width="0.7"/>
      <path id="路径_472" data-name="路径 472" d="M-405.606,989.022c-62,28.593-197.892-21.525-226.482-83.528" transform="translate(-430.155 349.285) rotate(-90)" fill="none" stroke="#bda567" stroke-width="0.7"/>
      <path id="路径_487" data-name="路径 487" d="M-285.71,1028.223c8.168-10.05,35.5-12.881,45.555-4.714" transform="translate(-469.356 469.181) rotate(-90)" fill="none" stroke="#bda567" stroke-width="0.7"/>
      <path id="路径_531" data-name="路径 531" d="M-684.374,783.35c72.818-63.494,277.284-49.509,340.778,23.309" transform="translate(-373.887 331.187) rotate(-90)" fill="none" stroke="#bda567" stroke-width="0.7"/>
      <path id="路径_538" data-name="路径 538" d="M-313.265,1027.909" transform="translate(-403.225 459.643) rotate(-90)" fill="none" stroke="#bda567" stroke-width="0.7"/>
      <path id="路径_592" data-name="路径 592" d="M675.492,520.24c-24.29-12.546-41.906-67.8-29.361-92.087" transform="translate(-264.928 790.291) rotate(-90)" fill="none" stroke="#bda567" stroke-width="0.7"/>
      <path id="路径_602" data-name="路径 602" d="M693.235,568.989c35.438,27.356,47.559,121.547,20.2,156.984" transform="translate(-313.677 808.033) rotate(-90)" fill="none" stroke="#bda567" stroke-width="0.7"/>
      <path id="路径_605" data-name="路径 605" d="M434.2,1160.8c13.108,6.7,22.729,36.4,16.034,49.5" transform="translate(-518.527 718.37) rotate(-90)" fill="none" stroke="#bda567" stroke-width="0.7"/>
      <path id="路径_611" data-name="路径 611" d="M434.2,1105.012c7.721-49.615,93.725-112.459,143.342-104.735" transform="translate(-462.739 718.37) rotate(-90)" fill="none" stroke="#bda567" stroke-width="0.7"/>
      <path id="路径_614" data-name="路径 614" d="M490.831,614.675" transform="translate(-325.587 611.966) rotate(-90)" fill="none" stroke="#bda567" stroke-width="0.7"/>
      <path id="路径_616" data-name="路径 616" d="M446.99,545.808" transform="translate(-304.471 611.966) rotate(-90)" fill="none" stroke="#bda567" stroke-width="0.7"/>
      <path id="路径_652" data-name="路径 652" d="M125.3,846.088c40.5,41.636,38.805,164.846-2.831,205.346" transform="translate(-409.592 610.468) rotate(-90)" fill="none" stroke="#bda567" stroke-width="0.7"/>
      <path id="路径_708" data-name="路径 708" d="M645.645,516.338c7.8,21.232,1.217,63.344-29.15,64.711" transform="translate(-295.452 737.63) rotate(-90)" fill="none" stroke="#bda567" stroke-width="0.7"/>
      <path id="路径_711" data-name="路径 711" d="M728.125,516.338c11.335,1.362,26.3,20.408,24.935,31.744" transform="translate(-295.452 820.11) rotate(-90)" fill="none" stroke="#bda567" stroke-width="0.7"/>
      <path id="路径_718" data-name="路径 718" d="M700.49,485.814c-21.967-1.1-53.271-35.694-52.174-57.661" transform="translate(-264.928 792.476) rotate(-90)" fill="none" stroke="#bda567" stroke-width="0.7"/>
      <path id="路径_727" data-name="路径 727" d="M726.743,516.338c37.76,38.8,36.194,153.65-2.61,191.41" transform="translate(-295.452 818.729) rotate(-90)" fill="none" stroke="#bda567" stroke-width="0.7"/>
      <path id="路径_791" data-name="路径 791" d="M-139.125,890.567c13.581-26.455,73.635-45.763,100.09-32.182" transform="translate(-412.303 519.92) rotate(-90)" fill="none" stroke="#bda567" stroke-width="0.7"/>
      <path id="路径_808" data-name="路径 808" d="M-165.748,909.967c5.12,25.236-25.055,70.769-50.291,75.889" transform="translate(-431.703 493.297) rotate(-90)" fill="none" stroke="#bda567" stroke-width="0.7"/>
      <path id="路径_819" data-name="路径 819" d="M-63.64,1264.731c-12.631-8.115-19.414-39.219-11.3-51.851" transform="translate(-536.554 540.916) rotate(-90)" fill="none" stroke="#bda567" stroke-width="0.7"/>
      <path id="路径_839" data-name="路径 839" d="M-55.792,1292.18c12.855,1.255,30.245,22.434,28.984,35.289" transform="translate(-564.002 548.765) rotate(-90)" fill="none" stroke="#bda567" stroke-width="0.7"/>
      <path id="路径_860" data-name="路径 860" d="M-78.566,1117.768c-26.617-45.247,1.33-153.049,46.578-179.666" transform="translate(-441.442 537.296) rotate(-90)" fill="none" stroke="#bda567" stroke-width="0.7"/>
      <path id="路径_865" data-name="路径 865" d="M-73.081,1182.8c23.272-42.71,122.244-71.866,164.954-48.595" transform="translate(-506.469 542.78) rotate(-90)" fill="none" stroke="#bda567" stroke-width="0.7"/>
      <path id="路径_877" data-name="路径 877" d="M-73.081,1212.88c25.486,9.37,49.659,61.652,40.289,87.14" transform="translate(-536.554 542.78) rotate(-90)" fill="none" stroke="#bda567" stroke-width="0.7"/>
      <path id="路径_889" data-name="路径 889" d="M-73.081,1201.048c35.7-32.87,138.557-28.626,171.426,7.075" transform="translate(-524.721 542.78) rotate(-90)" fill="none" stroke="#bda567" stroke-width="0.7"/>
      <path id="路径_892" data-name="路径 892" d="M-75.51,1147.12c-15.764-33.929,11.479-108.462,45.4-124.22" transform="translate(-470.794 540.352) rotate(-90)" fill="none" stroke="#bda567" stroke-width="0.7"/>
      <path id="路径_920" data-name="路径 920" d="M-672.62,641.83c64.754-83.119,286.564-110.668,369.683-45.914" transform="translate(-310.588 335.256) rotate(-90)" fill="none" stroke="#bda567" stroke-width="0.7"/>
      <path id="路径_921" data-name="路径 921" d="M-672.62,652.727c72.051-76.332,294.624-82.752,370.955-10.7" transform="translate(-321.485 335.256) rotate(-90)" fill="none" stroke="#bda567" stroke-width="0.7"/>
      <path id="路径_923" data-name="路径 923" d="M-672.62,685.114c91.026,26.167,188.313,201.955,162.146,292.979" transform="translate(-353.873 335.256) rotate(-90)" fill="none" stroke="#bda567" stroke-width="0.7"/>
      <path id="路径_924" data-name="路径 924" d="M-672.62,676.675c86.925-46.312,286.78,14.605,333.093,101.53" transform="translate(-345.434 335.256) rotate(-90)" fill="none" stroke="#bda567" stroke-width="0.7"/>
      <path id="路径_948" data-name="路径 948" d="M-107.234,614.894c7.3,6.788,8.06,27.916,1.272,35.213" transform="translate(-329.566 530.959) rotate(-90)" fill="none" stroke="#bda567" stroke-width="0.7"/>
      <path id="路径_950" data-name="路径 950" d="M-107.234,604.6c62.894-42.267,220.636-11.327,262.9,51.567" transform="translate(-319.275 530.959) rotate(-90)" fill="none" stroke="#bda567" stroke-width="0.7"/>
      <path id="路径_965" data-name="路径 965" d="M22.189,2021.086c26.725-10.751,93.845,32.408,83.4,80.8" transform="translate(-819.022 602.097) rotate(-90)" fill="none" stroke="#bda567" stroke-width="0.7"/>
      <path id="路径_972" data-name="路径 972" d="M151.8,1940.832c-16.8-12.423-23.369-56.264-10.946-73.062" transform="translate(-763.238 614.603) rotate(-90)" fill="none" stroke="#bda567" stroke-width="0.7"/>
      <path id="路径_985" data-name="路径 985" d="M-158.239,2091.5c-42.664-48.941-33.249-186.35,15.691-229.014" transform="translate(-761.41 503.907) rotate(-90)" fill="none" stroke="#bda567" stroke-width="0.7"/>
      <path id="路径_986" data-name="路径 986" d="M-151.618,2181.38c-13.783-9.913-19.587-45.456-9.673-59.24" transform="translate(-851.286 510.528) rotate(-90)" fill="none" stroke="#bda567" stroke-width="0.7"/>
      <path id="路径_989" data-name="路径 989" d="M-143.868,2211.719c13.945-6.545,44.68,4.551,51.225,18.5" transform="translate(-881.625 518.278) rotate(-90)" fill="none" stroke="#bda567" stroke-width="0.7"/>
      <path id="路径_994" data-name="路径 994" d="M-143.868,2212.74c31.836,9.971,64.633,72.683,54.661,104.519" transform="translate(-882.646 518.278) rotate(-90)" fill="none" stroke="#bda567" stroke-width="0.7"/>
      <path id="路径_997" data-name="路径 997" d="M-143.868,2199.234c.069-10.279,15.587-25.586,25.862-25.514" transform="translate(-869.139 518.278) rotate(-90)" fill="none" stroke="#bda567" stroke-width="0.7"/>
      <path id="路径_998" data-name="路径 998" d="M-143.868,2200.834c5.232-47.021,125.413-84.4,163.311-49.616" transform="translate(-870.74 518.278) rotate(-90)" fill="none" stroke="#bda567" stroke-width="0.7"/>
      <path id="路径_1005" data-name="路径 1005" d="M266.837,520.989c-35.125-41.407-25.7-156.2,15.7-191.328" transform="translate(-230.835 652.959) rotate(-90)" fill="none" stroke="#bda567" stroke-width="0.7"/>
      <path id="路径_1006" data-name="路径 1006" d="M278.279,622.275c11.514,7.182,18.013,35.226,10.832,46.74" transform="translate(-332.121 664.4) rotate(-90)" fill="none" stroke="#bda567" stroke-width="0.7"/>
      <path id="路径_1021" data-name="路径 1021" d="M136.864,1704.046C94.7,1622.5,153.777,1436.931,235.325,1394.77" transform="translate(-599.513 610.61) rotate(-90)" fill="none" stroke="#bda567" stroke-width="0.7"/>
      <path id="路径_1028" data-name="路径 1028" d="M117.941,1644.831c-78.363-90.089-60.776-342.766,29.311-421.131" transform="translate(-540.299 591.688) rotate(-90)" fill="none" stroke="#bda567" stroke-width="0.7"/>
      <path id="路径_1030" data-name="路径 1030" d="M507.579,1037.221c-52.328,24.977-168.28-16.052-193.254-68.38" transform="translate(-452.082 676.877) rotate(-90)" fill="none" stroke="#bda567" stroke-width="0.7"/>
      <path id="路径_1034" data-name="路径 1034" d="M544.374,1007.736c-49.566-.065-123.815-74.513-123.748-124.078" transform="translate(-422.597 713.672) rotate(-90)" fill="none" stroke="#bda567" stroke-width="0.7"/>
      <path id="路径_1038" data-name="路径 1038" d="M30.941,600.131c37.64,50.755,17.968,183.345-32.786,220.985" transform="translate(-324.457 567.438) rotate(-90)" fill="none" stroke="#bda567" stroke-width="0.7"/>
      <path id="路径_1055" data-name="路径 1055" d="M30.319,600.131C78.813,662.209,58.436,828.066-3.641,876.562" transform="translate(-324.457 566.816) rotate(-90)" fill="none" stroke="#bda567" stroke-width="0.7"/>
      <path id="路径_1057" data-name="路径 1057" d="M48.3,600.131c56.391,39.647,81.508,183.7,41.861,240.1" transform="translate(-324.457 584.795) rotate(-90)" fill="none" stroke="#bda567" stroke-width="0.7"/>
      <path id="路径_1061" data-name="路径 1061" d="M2.9,600.131C10.5,642.036-40.947,716.3-82.852,723.9" transform="translate(-324.457 539.398) rotate(-90)" fill="none" stroke="#bda567" stroke-width="0.7"/>
      <path id="路径_1063" data-name="路径 1063" d="M340.529,1236.51c-22.1,67.2-156.06,134.852-223.261,112.745" transform="translate(-544.733 608.668) rotate(-90)" fill="none" stroke="#bda567" stroke-width="0.7"/>
      <path id="路径_1064" data-name="路径 1064" d="M402,1236.51c-.734,42.128-65.022,104.212-107.147,103.48" transform="translate(-544.733 670.137) rotate(-90)" fill="none" stroke="#bda567" stroke-width="0.7"/>
      <path id="路径_1075" data-name="路径 1075" d="M192.148,693.575" transform="translate(-356.681 567.438) rotate(-90)" fill="none" stroke="#bda567" stroke-width="0.7"/>
      <path id="路径_1107" data-name="路径 1107" d="M7.136,740.231c-33.506-57.557,2.57-194.152,60.128-227.659" transform="translate(-294.148 566.091) rotate(-90)" fill="none" stroke="#bda567" stroke-width="0.7"/>
      <path id="路径_1119" data-name="路径 1119" d="M82.155,2363.11c38.446,9.027,86.48,103.507,80.056,157.508" transform="translate(-934.695 596.514) rotate(-90)" fill="none" stroke="#bda567" stroke-width="0.7"/>
      <path id="路径_1121" data-name="路径 1121" d="M32.856,2363.11c-17.385,19.864-73.261,23.584-93.126,6.2" transform="translate(-934.695 547.215) rotate(-90)" fill="none" stroke="#bda567" stroke-width="0.7"/>
      <path id="路径_1154" data-name="路径 1154" d="M-535.967,827.044c47.793-49.7,194.038-52.566,243.741-4.773" transform="translate(-389.5 382.557) rotate(-90)" fill="none" stroke="#bda567" stroke-width="0.7"/>
      <path id="路径_1167" data-name="路径 1167" d="M3.4,1556.215c-14.765-44.149,29.3-132.511,73.444-147.275" transform="translate(-604.418 568.249) rotate(-90)" fill="none" stroke="#bda567" stroke-width="0.7"/>
      <path id="路径_1169" data-name="路径 1169" d="M4.944,1551.136c6.6-69.224,120.339-163.144,189.558-156.541" transform="translate(-599.338 569.788) rotate(-90)" fill="none" stroke="#bda567" stroke-width="0.7"/>
      <path id="路径_1171" data-name="路径 1171" d="M4.944,1634.18c35.065,33.8,36.96,137.095,3.159,172.161" transform="translate(-682.383 569.788) rotate(-90)" fill="none" stroke="#bda567" stroke-width="0.7"/>
      <path id="路径_1190" data-name="路径 1190" d="M-113.345,1989.823c-28.168-22.761-36.274-99.164-13.509-127.333" transform="translate(-761.41 519.601) rotate(-90)" fill="none" stroke="#bda567" stroke-width="0.7"/>
      <path id="路径_1204" data-name="路径 1204" d="M-100.976,2057.23c14.565,15.9,12.562,61.6-3.339,76.168" transform="translate(-828.817 531.969) rotate(-90)" fill="none" stroke="#bda567" stroke-width="0.7"/>
      <path id="路径_1214" data-name="路径 1214" d="M756.112,564.886c42.521,50.19,31.02,189.255-19.169,231.776" transform="translate(-312.257 823.163) rotate(-90)" fill="none" stroke="#bda567" stroke-width="0.7"/>
      <path id="路径_1216" data-name="路径 1216" d="M751.678,564.886c26.424,37.443,9.9,133.243-27.545,159.667" transform="translate(-312.257 818.729) rotate(-90)" fill="none" stroke="#bda567" stroke-width="0.7"/>
      <path id="路径_1217" data-name="路径 1217" d="M397.282,2305.06c14.11,7.99,23.288,41.141,15.3,55.251" transform="translate(-914.602 705.592) rotate(-90)" fill="none" stroke="#bda567" stroke-width="0.7"/>
      <path id="路径_1218" data-name="路径 1218" d="M358.552,2195.278c-54.125-28.829-92.071-153.252-63.243-207.378" transform="translate(-804.819 666.862) rotate(-90)" fill="none" stroke="#bda567" stroke-width="0.7"/>
      <path id="路径_1238" data-name="路径 1238" d="M179.188,1117.117c-.673-15.529,21.613-39.84,37.144-40.507" transform="translate(-489.385 630.096) rotate(-90)" fill="none" stroke="#bda567" stroke-width="0.7"/>
      <path id="路径_1241" data-name="路径 1241" d="M157.76,1138.56c27.26,43.456,2.965,149.531-40.492,176.79" transform="translate(-510.829 608.668) rotate(-90)" fill="none" stroke="#bda567" stroke-width="0.7"/>
      <path id="路径_1247" data-name="路径 1247" d="M154.088,1079.29c-31.137-13.646-57.375-80.824-43.728-111.961" transform="translate(-451.559 604.996) rotate(-90)" fill="none" stroke="#bda567" stroke-width="0.7"/>
      <path id="路径_1255" data-name="路径 1255" d="M296.386,873.623c-38.52-33.425-46.163-141.344-12.737-179.864" transform="translate(-356.865 658.939) rotate(-90)" fill="none" stroke="#bda567" stroke-width="0.7"/>
      <path id="路径_1261" data-name="路径 1261" d="M246.116,968.84c31.783,83.321-45.525,255.979-128.848,287.763" transform="translate(-452.082 608.668) rotate(-90)" fill="none" stroke="#bda567" stroke-width="0.7"/>
      <path id="路径_1269" data-name="路径 1269" d="M270.978,968.84c16.953,49.706-32.177,149.694-81.883,166.642" transform="translate(-452.082 633.53) rotate(-90)" fill="none" stroke="#bda567" stroke-width="0.7"/>
      <path id="路径_1274" data-name="路径 1274" d="M-133.3,1862.49c28.881,39.029,13.662,140.894-25.365,169.775" transform="translate(-761.41 513.157) rotate(-90)" fill="none" stroke="#bda567" stroke-width="0.7"/>
      <path id="路径_1281" data-name="路径 1281" d="M-119.87,1860.011c21.529-12.378,76.861-5.3,89.24,16.23" transform="translate(-758.931 526.585) rotate(-90)" fill="none" stroke="#bda567" stroke-width="0.7"/>
      <path id="路径_1294" data-name="路径 1294" d="M-232.653,1660.146c-117.85-35.04-242.064-264.375-207.022-382.227" transform="translate(-559.066 413.802) rotate(-90)" fill="none" stroke="#bda567" stroke-width="0.7"/>
      <path id="路径_1339" data-name="路径 1339" d="M545.339,778.561C508.913,881.61,364.165,948.308,284.192,912.54" transform="translate(-488.407 666.474) rotate(-90)" fill="none" stroke="#bda567" stroke-width="0.7"/>
      <path id="路径_1346" data-name="路径 1346" d="M592.636,779.407c-2.769,123.674-66.678,168.889-172.01,171.128" transform="translate(-489.474 713.672) rotate(-90)" fill="none" stroke="#bda567" stroke-width="0.7"/>
      <path id="路径_1402" data-name="路径 1402" d="M9.956,2372c-25.331-26.736-23.223-104.833,3.512-130.164" transform="translate(-892.718 565.353) rotate(-90)" fill="none" stroke="#bda567" stroke-width="0.7"/>
      <path id="路径_1406" data-name="路径 1406" d="M-8.182,2417.261c-19.351,1.484-50.6-25.317-52.088-44.671" transform="translate(-937.977 547.215) rotate(-90)" fill="none" stroke="#bda567" stroke-width="0.7"/>
      <path id="路径_1411" data-name="路径 1411" d="M-105.288,551.149c8.958-97.644,168.86-230.673,266.5-221.715" transform="translate(-230.608 531.632) rotate(-90)" fill="none" stroke="#bda567" stroke-width="0.7"/>
      <path id="路径_1420" data-name="路径 1420" d="M-105.288,664.711C-51.969,639.3,66.12,681.169,91.528,734.488" transform="translate(-344.17 531.632) rotate(-90)" fill="none" stroke="#bda567" stroke-width="0.7"/>
      <path id="路径_1423" data-name="路径 1423" d="M302.3,323.431c58.132-32.372,193.886,6.269,226.258,64.4" transform="translate(-224.605 672.714) rotate(-90)" fill="none" stroke="#bda567" stroke-width="0.7"/>
      <path id="路径_1456" data-name="路径 1456" d="M503.571,504.035c-23.446-8.4-46.02-56.163-37.622-79.609" transform="matrix(0.407, -0.914, 0.914, 0.407, -412.449, 516.005)" fill="none" stroke="#bda567" stroke-width="0.7"/>
      <path id="路径_1462" data-name="路径 1462" d="M294.845,601.822" transform="translate(-264.928 670.135) rotate(-90)" fill="none" stroke="#bda567" stroke-width="0.7"/>
      <path id="路径_1468" data-name="路径 1468" d="M585.529,426.863C561.316,450.1,490.136,448.64,466.9,424.426" transform="translate(-263.638 729.689) rotate(-90)" fill="none" stroke="#bda567" stroke-width="0.7"/>
      <path id="路径_1472" data-name="路径 1472" d="M623.2,428.153c-7.52,11.472-36.008,17.4-47.48,9.88" transform="translate(-264.928 767.355) rotate(-90)" fill="none" stroke="#bda567" stroke-width="0.7"/>
      <path id="路径_1476" data-name="路径 1476" d="M274.478,693.759C316.848,751.519,293.764,901.713,236,944.09" transform="translate(-356.865 649.767) rotate(-90)" fill="none" stroke="#bda567" stroke-width="0.7"/>
      <path id="路径_1478" data-name="路径 1478" d="M291.185,693.759c16.012,18.777,11.864,70.961-6.914,86.974" transform="translate(-356.865 666.474) rotate(-90)" fill="none" stroke="#bda567" stroke-width="0.7"/>
      <path id="路径_1518" data-name="路径 1518" d="M236,1065.429c66.386-45.188,233.748-13.391,278.936,52.989" transform="translate(-478.204 649.767) rotate(-90)" fill="none" stroke="#bda567" stroke-width="0.7"/>
      <path id="路径_1524" data-name="路径 1524" d="M236,1009.821c-1.089-49.38,71.341-125.075,120.717-126.163" transform="translate(-422.597 649.761) rotate(-90)" fill="none" stroke="#bda567" stroke-width="0.7"/>
      <path id="路径_1533" data-name="路径 1533" d="M-632.646,879.826c-5.047-14.348,8.907-43.44,23.255-48.487" transform="translate(-404.487 348.728) rotate(-90)" fill="none" stroke="#bda567" stroke-width="0.7"/>
      <path id="路径_1536" data-name="路径 1536" d="M-632.088,905.09c56.274-8.92,154.066,62.114,162.986,118.385" transform="translate(-429.75 349.285) rotate(-90)" fill="none" stroke="#bda567" stroke-width="0.7"/>
      <path id="路径_1565" data-name="路径 1565" d="M360.7,2508.144c-16.25-31.182,6.151-102.335,37.335-118.584" transform="translate(-943.851 691.045) rotate(-90)" fill="none" stroke="#bda567" stroke-width="0.7"/>
      <path id="路径_1566" data-name="路径 1566" d="M363.579,2570.92c60.7,41.867,88.937,195.713,47.069,256.411" transform="translate(-1006.626 693.926) rotate(-90)" fill="none" stroke="#bda567" stroke-width="0.7"/>
      <path id="路径_1570" data-name="路径 1570" d="M291.813,2447.154c-73.228-20.29-152.636-160.568-132.347-233.794" transform="translate(-882.861 622.16) rotate(-90)" fill="none" stroke="#bda567" stroke-width="0.7"/>
      <path id="路径_1571" data-name="路径 1571" d="M603.415,1157.65c-.17,44.554-67.255,111.13-111.808,110.96" transform="translate(-517.437 738.242) rotate(-90)" fill="none" stroke="#bda567" stroke-width="0.7"/>
      <path id="路径_1576" data-name="路径 1576" d="M578.775,1062.81c-67.475-4.185-162.407-111.677-158.22-179.152" transform="translate(-422.597 713.602) rotate(-90)" fill="none" stroke="#bda567" stroke-width="0.7"/>
      <path id="路径_1579" data-name="路径 1579" d="M462.492,1289.69c-25.183-3.269-58.044-45.96-54.771-71.14" transform="translate(-538.516 709.127) rotate(-90)" fill="none" stroke="#bda567" stroke-width="0.7"/>
      <path id="路径_1580" data-name="路径 1580" d="M425.478,1327.35c61.4,111.365-13.554,370.509-124.919,431.907" transform="translate(-576.176 672.112) rotate(-90)" fill="none" stroke="#bda567" stroke-width="0.7"/>
      <path id="路径_1613" data-name="路径 1613" d="M253.619,809.014c-18.29,4.87-53.031-15.26-57.9-33.551" transform="translate(-385.146 635.823) rotate(-90)" fill="none" stroke="#bda567" stroke-width="0.7"/>
      <path id="路径_1645" data-name="路径 1645" d="M117.268,1342.238c13.1-62.895,127.1-137.592,189.995-124.488" transform="translate(-537.716 608.668) rotate(-90)" fill="none" stroke="#bda567" stroke-width="0.7"/>
      <path id="路径_1649" data-name="路径 1649" d="M72.709,1387.206c-25.046,8.624-75.55-16.013-84.173-41.056" transform="translate(-582.684 564.109) rotate(-90)" fill="none" stroke="#bda567" stroke-width="0.7"/>
      <path id="路径_1652" data-name="路径 1652" d="M105.227,1322.82c-31.856-33.216-29.816-130.824,3.4-162.68" transform="translate(-518.298 596.627) rotate(-90)" fill="none" stroke="#bda567" stroke-width="0.7"/>
      <path id="路径_1674" data-name="路径 1674" d="M-66.106,1378.7c-80.7,57.853-288.54,23.585-346.393-57.121" transform="translate(-574.179 425.294) rotate(-90)" fill="none" stroke="#bda567" stroke-width="0.7"/>
      <path id="路径_1683" data-name="路径 1683" d="M370.707,1218.55c86.579,114.641,44.491,416.469-70.148,503.047" transform="translate(-538.516 672.112) rotate(-90)" fill="none" stroke="#bda567" stroke-width="0.7"/>
      <path id="路径_1692" data-name="路径 1692" d="M-65.525,2241.03c17.892,16.516,19.953,68.132,3.436,86.022" transform="translate(-892.438 545.396) rotate(-90)" fill="none" stroke="#bda567" stroke-width="0.7"/>
      <path id="路径_1696" data-name="路径 1696" d="M708.033,919.36c-.3,21.548-33.064,53.427-54.612,53.133" transform="translate(-434.955 794.252) rotate(-90)" fill="none" stroke="#bda567" stroke-width="0.7"/>
      <path id="路径_1697" data-name="路径 1697" d="M728.7,881.187c-16.1-12.747-21.122-56.012-8.376-72.11" transform="translate(-396.781 814.916) rotate(-90)" fill="none" stroke="#bda567" stroke-width="0.7"/>
      <path id="路径_1707" data-name="路径 1707" d="M12.9,2241.84c13.148,22.107-.3,75-22.406,88.147" transform="translate(-892.718 564.787) rotate(-90)" fill="none" stroke="#bda567" stroke-width="0.7"/>
      <path id="路径_1729" data-name="路径 1729" d="M-150.278,1337.645c-55.657,49.229-212.99,39.591-262.221-16.065" transform="translate(-574.179 425.294) rotate(-90)" fill="none" stroke="#bda567" stroke-width="0.7"/>
      <path id="路径_1754" data-name="路径 1754" d="M109.452,2140.51c16.29,2.759,36.58,31.346,33.816,47.634" transform="translate(-857.644 605.963) rotate(-90)" fill="none" stroke="#bda567" stroke-width="0.7"/>
      <path id="路径_1761" data-name="路径 1761" d="M372.286,2250.529c-68.234-36.819-115.358-194.4-78.541-262.629" transform="translate(-804.819 665.298) rotate(-90)" fill="none" stroke="#bda567" stroke-width="0.7"/>
      <path id="路径_1787" data-name="路径 1787" d="M-393.094,1086.55c26.854,34.615,15.211,126.823-19.405,153.677" transform="translate(-492.826 425.294) rotate(-90)" fill="none" stroke="#bda567" stroke-width="0.7"/>
      <path id="路径_1800" data-name="路径 1800" d="M422.959,2951.8c-9.02.5-23.307-12.266-23.813-21.29" transform="translate(-1131.095 706.237) rotate(-90)" fill="none" stroke="#bda567" stroke-width="0.7"/>
      <path id="路径_1805" data-name="路径 1805" d="M300.164,1896.124c-9.14-60.207,67.456-164.223,127.661-173.364" transform="translate(-713.044 671.717) rotate(-90)" fill="none" stroke="#bda567" stroke-width="0.7"/>
      <path id="路径_1812" data-name="路径 1812" d="M466.9,421.384c16.694-11.768,59.385-4.377,71.152,12.317" transform="translate(-260.595 729.689) rotate(-90)" fill="none" stroke="#bda567" stroke-width="0.7"/>
      <path id="路径_1816" data-name="路径 1816" d="M147.535,2346.81c61.437,35.073,100.979,179.844,65.9,241.281" transform="translate(-929.053 619.145) rotate(-90)" fill="none" stroke="#bda567" stroke-width="0.7"/>
      <path id="路径_1826" data-name="路径 1826" d="M346.521,2856.2c-47.8-8.35-106.967-92.58-98.614-140.377" transform="translate(-1056.782 653.612) rotate(-90)" fill="none" stroke="#bda567" stroke-width="0.7"/>
      <path id="路径_1862" data-name="路径 1862" d="M-181.486,840.392c17.366,31.187-3.366,104.017-34.553,121.381" transform="translate(-407.621 493.297) rotate(-90)" fill="none" stroke="#bda567" stroke-width="0.7"/>
      <path id="路径_1887" data-name="路径 1887" d="M-60.27,2370.59c7.169-6.107,27.086-4.519,33.195,2.654" transform="translate(-935.976 547.215) rotate(-90)" fill="none" stroke="#bda567" stroke-width="0.7"/>
      <path id="路径_1925" data-name="路径 1925" d="M-79.916,2303.512c-31.548-10.183-53.112-85.458-27.393-129.792" transform="translate(-869.14 528.975) rotate(-90)" fill="none" stroke="#bda567" stroke-width="0.7"/>
      <path id="路径_1949" data-name="路径 1949" d="M-104.439,2172.188c42.829-21.544,84.36,15.834,84.523,43.466" transform="translate(-866.532 531.969) rotate(-90)" fill="none" stroke="#bda567" stroke-width="0.7"/>
      <circle id="椭圆_2" data-name="椭圆 2" cx="3.126" cy="3.126" r="3.126" transform="translate(668.612 960.348) rotate(-90)" fill="rgba(152,136,98,0.55)"/>
      <circle id="椭圆_5" data-name="椭圆 5" cx="5.152" cy="5.152" r="5.152" transform="translate(1198.26 586.455) rotate(-90)" fill="rgba(152,136,98,0.55)"/>
      <circle id="椭圆_6" data-name="椭圆 6" cx="2.946" cy="2.946" r="2.946" transform="translate(1882.833 279.026) rotate(-90)" fill="rgba(152,136,98,0.55)"/>
      <circle id="椭圆_8" data-name="椭圆 8" cx="4.448" cy="4.448" r="4.448" transform="translate(455.578 343.228) rotate(-90)" fill="rgba(152,136,98,0.55)"/>
      <circle id="椭圆_9" data-name="椭圆 9" cx="4.405" cy="4.405" r="4.405" transform="translate(666.902 183.656) rotate(-90)" fill="rgba(152,136,98,0.55)"/>
      <circle id="椭圆_12" data-name="椭圆 12" cx="4.605" cy="4.605" r="4.605" transform="translate(1417.633 442.26) rotate(-90)" fill="rgba(152,136,98,0.55)"/>
      <circle id="椭圆_13" data-name="椭圆 13" cx="4.605" cy="4.605" r="4.605" transform="translate(660.817 878.423) rotate(-90)" fill="rgba(152,136,98,0.55)"/>
      <circle id="椭圆_15" data-name="椭圆 15" cx="3.765" cy="3.765" r="3.765" transform="translate(53.69 292.228) rotate(-90)" fill="rgba(152,136,98,0.55)"/>
      <circle id="椭圆_17" data-name="椭圆 17" cx="4.962" cy="4.962" r="4.962" transform="translate(876.535 667.292) rotate(-90)" fill="rgba(152,136,98,0.55)"/>
      <circle id="椭圆_18" data-name="椭圆 18" cx="3.595" cy="3.595" r="3.595" transform="translate(1168.738 704.306) rotate(-90)" fill="rgba(152,136,98,0.55)"/>
      <circle id="椭圆_23" data-name="椭圆 23" cx="4.529" cy="4.529" r="4.529" transform="translate(173.456 382.023) rotate(-90)" fill="rgba(152,136,98,0.55)"/>
      <circle id="椭圆_24" data-name="椭圆 24" cx="3.126" cy="3.126" r="3.126" transform="translate(1583.165 437.65) rotate(-90)" fill="rgba(152,136,98,0.55)"/>
      <circle id="椭圆_25" data-name="椭圆 25" cx="3.684" cy="3.684" r="3.684" transform="translate(41.002 256.826) rotate(-90)" fill="rgba(152,136,98,0.55)"/>
      <circle id="椭圆_26" data-name="椭圆 26" cx="5.074" cy="5.074" r="5.074" transform="translate(735.601 713.351) rotate(-90)" fill="rgba(152,136,98,0.55)"/>
      <circle id="椭圆_36" data-name="椭圆 36" cx="3.979" cy="3.979" r="3.979" transform="translate(638.663 288.954) rotate(-90)" fill="rgba(152,136,98,0.55)"/>
      <circle id="椭圆_39" data-name="椭圆 39" cx="4.772" cy="4.772" r="4.772" transform="translate(284.684 126.709) rotate(-90)" fill="rgba(152,136,98,0.55)"/>
      <circle id="椭圆_40" data-name="椭圆 40" cx="4.802" cy="4.802" r="4.802" transform="translate(216.453 97.589) rotate(-90)" fill="rgba(152,136,98,0.55)"/>
      <circle id="椭圆_47" data-name="椭圆 47" cx="5.378" cy="5.378" r="5.378" transform="translate(671.317 622.041) rotate(-90)" fill="rgba(152,136,98,0.55)"/>
      <circle id="椭圆_48" data-name="椭圆 48" cx="4.772" cy="4.772" r="4.772" transform="translate(471.818 664.911) rotate(-90)" fill="rgba(152,136,98,0.55)"/>
      <circle id="椭圆_49" data-name="椭圆 49" cx="3.765" cy="3.765" r="3.765" transform="translate(327.845 1012.443) rotate(-90)" fill="rgba(152,136,98,0.55)"/>
      <circle id="椭圆_51" data-name="椭圆 51" cx="4.405" cy="4.405" r="4.405" transform="translate(281.292 643.4) rotate(-90)" fill="rgba(152,136,98,0.55)"/>
      <circle id="椭圆_53" data-name="椭圆 53" cx="4.212" cy="4.212" r="4.212" transform="translate(1173.751 467.815) rotate(-90)" fill="rgba(152,136,98,0.55)"/>
      <circle id="椭圆_54" data-name="椭圆 54" cx="4.741" cy="4.741" r="4.741" transform="translate(1325.722 667.689) rotate(-90)" fill="rgba(152,136,98,0.55)"/>
      <circle id="椭圆_56" data-name="椭圆 56" cx="4.405" cy="4.405" r="4.405" transform="translate(1100.496 478.953) rotate(-90)" fill="rgba(152,136,98,0.55)"/>
      <circle id="椭圆_61" data-name="椭圆 61" cx="4.101" cy="4.101" r="4.101" transform="translate(442.349 563.859) rotate(-90)" fill="rgba(152,136,98,0.55)"/>
      <circle id="椭圆_65" data-name="椭圆 65" cx="4.938" cy="4.938" r="4.938" transform="translate(947.228 570.584) rotate(-90)" fill="rgba(152,136,98,0.55)"/>
      <circle id="椭圆_67" data-name="椭圆 67" cx="4.859" cy="4.859" r="4.859" transform="translate(1223.922 638.606) rotate(-90)" fill="rgba(152,136,98,0.55)"/>
      <circle id="椭圆_68" data-name="椭圆 68" cx="4.568" cy="4.568" r="4.568" transform="translate(248.43 72.421) rotate(-90)" fill="rgba(152,136,98,0.55)"/>
      <circle id="椭圆_69" data-name="椭圆 69" cx="3.391" cy="3.391" r="3.391" transform="translate(1387.436 312.504) rotate(-90)" fill="rgba(152,136,98,0.55)"/>
      <circle id="椭圆_72" data-name="椭圆 72" cx="5.031" cy="5.031" r="5.031" transform="translate(512.096 368.386) rotate(-90)" fill="rgba(152,136,98,0.55)"/>
      <circle id="椭圆_73" data-name="椭圆 73" cx="5.251" cy="5.251" r="5.251" transform="translate(1096.198 652.508) rotate(-90)" fill="rgba(152,136,98,0.55)"/>
      <circle id="椭圆_74" data-name="椭圆 74" cx="4.313" cy="4.313" r="4.313" transform="translate(1266.91 676.934) rotate(-90)" fill="rgba(152,136,98,0.55)"/>
      <circle id="椭圆_80" data-name="椭圆 80" cx="4.529" cy="4.529" r="4.529" transform="translate(316.379 642.252) rotate(-90)" fill="rgba(152,136,98,0.55)"/>
      <circle id="椭圆_81" data-name="椭圆 81" cx="4.405" cy="4.405" r="4.405" transform="translate(94.789 375.624) rotate(-90)" fill="rgba(152,136,98,0.55)"/>
      <circle id="椭圆_83" data-name="椭圆 83" cx="5.009" cy="5.009" r="5.009" transform="translate(247.547 266.844) rotate(-90)" fill="rgba(152,136,98,0.55)"/>
      <circle id="椭圆_84" data-name="椭圆 84" cx="4.986" cy="4.986" r="4.986" transform="translate(158.608 149.948) rotate(-90)" fill="rgba(152,136,98,0.55)"/>
      <circle id="椭圆_85" data-name="椭圆 85" cx="5.356" cy="5.356" r="5.356" transform="translate(331.907 381.448) rotate(-90)" fill="rgba(152,136,98,0.55)"/>
      <circle id="椭圆_89" data-name="椭圆 89" cx="4.709" cy="4.709" r="4.709" transform="translate(470.999 986.884) rotate(-90)" fill="rgba(152,136,98,0.55)"/>
      <circle id="椭圆_90" data-name="椭圆 90" cx="4.042" cy="4.042" r="4.042" transform="translate(423.179 962.962) rotate(-90)" fill="rgba(152,136,98,0.55)"/>
      <circle id="椭圆_94" data-name="椭圆 94" cx="4.042" cy="4.042" r="4.042" transform="translate(747.5 251.479) rotate(-90)" fill="rgba(152,136,98,0.55)"/>
      <circle id="椭圆_96" data-name="椭圆 96" cx="5.486" cy="5.486" r="5.486" transform="translate(418.751 388.491) rotate(-90)" fill="rgba(152,136,98,0.55)"/>
      <circle id="椭圆_101" data-name="椭圆 101" cx="4.212" cy="4.212" r="4.212" transform="translate(676.19 306.42) rotate(-90)" fill="rgba(152,136,98,0.55)"/>
      <circle id="椭圆_103" data-name="椭圆 103" cx="4.313" cy="4.313" r="4.313" transform="translate(480.461 91.334) rotate(-90)" fill="rgba(152,136,98,0.55)"/>
      <circle id="椭圆_104" data-name="椭圆 104" cx="4.802" cy="4.802" r="4.802" transform="translate(1344.688 557.489) rotate(-90)" fill="rgba(152,136,98,0.55)"/>
      <circle id="椭圆_106" data-name="椭圆 106" cx="4.802" cy="4.802" r="4.802" transform="translate(759.033 581.176) rotate(-90)" fill="rgba(152,136,98,0.55)"/>
      <circle id="椭圆_107" data-name="椭圆 107" cx="4.263" cy="4.263" r="4.263" transform="translate(791.362 380.351) rotate(-90)" fill="rgba(152,136,98,0.55)"/>
      <circle id="椭圆_111" data-name="椭圆 111" cx="5.009" cy="5.009" r="5.009" transform="translate(1278.225 502.322) rotate(-90)" fill="rgba(152,136,98,0.55)"/>
      <circle id="椭圆_112" data-name="椭圆 112" cx="3.391" cy="3.391" r="3.391" transform="translate(1442.687 297.206) rotate(-90)" fill="rgba(152,136,98,0.55)"/>
      <circle id="椭圆_113" data-name="椭圆 113" cx="5.28" cy="5.28" r="5.28" transform="translate(1112.047 562.767) rotate(-90)" fill="rgba(152,136,98,0.55)"/>
      <circle id="椭圆_116" data-name="椭圆 116" cx="3.126" cy="3.126" r="3.126" transform="translate(1817.946 287.207) rotate(-90)" fill="rgba(152,136,98,0.55)"/>
      <circle id="椭圆_118" data-name="椭圆 118" cx="5.094" cy="5.094" r="5.094" transform="translate(156.063 268.688) rotate(-90)" fill="rgba(152,136,98,0.55)"/>
      <circle id="椭圆_119" data-name="椭圆 119" cx="4.405" cy="4.405" r="4.405" transform="translate(1413.721 476.816) rotate(-90)" fill="rgba(152,136,98,0.55)"/>
      <circle id="椭圆_125" data-name="椭圆 125" cx="4.802" cy="4.802" r="4.802" transform="translate(619.787 851.333) rotate(-90)" fill="rgba(152,136,98,0.55)"/>
      <circle id="椭圆_132" data-name="椭圆 132" cx="5.479" cy="5.479" r="5.479" transform="translate(455.951 299.328) rotate(-90)" fill="rgba(152,136,98,0.55)"/>
      <circle id="椭圆_133" data-name="椭圆 133" cx="4.529" cy="4.529" r="4.529" transform="translate(1430.453 612.817) rotate(-90)" fill="rgba(152,136,98,0.55)"/>
      <circle id="椭圆_135" data-name="椭圆 135" cx="5.133" cy="5.133" r="5.133" transform="translate(385.552 446.04) rotate(-90)" fill="rgba(152,136,98,0.55)"/>
      <circle id="椭圆_136" data-name="椭圆 136" cx="5.031" cy="5.031" r="5.031" transform="translate(1325.836 468.528) rotate(-90)" fill="rgba(152,136,98,0.55)"/>
      <circle id="椭圆_143" data-name="椭圆 143" cx="5.152" cy="5.152" r="5.152" transform="translate(407.513 100.549) rotate(-90)" fill="rgba(152,136,98,0.55)"/>
      <circle id="椭圆_144" data-name="椭圆 144" cx="3.391" cy="3.391" r="3.391" transform="translate(1656.015 409.899) rotate(-90)" fill="rgba(152,136,98,0.55)"/>
      <circle id="椭圆_149" data-name="椭圆 149" cx="4.158" cy="4.158" r="4.158" transform="translate(743.611 842.753) rotate(-90)" fill="rgba(152,136,98,0.55)"/>
      <circle id="椭圆_151" data-name="椭圆 151" cx="4.313" cy="4.313" r="4.313" transform="translate(169.161 196.754) rotate(-90)" fill="rgba(152,136,98,0.55)"/>
      <circle id="椭圆_160" data-name="椭圆 160" cx="5.133" cy="5.133" r="5.133" transform="translate(549.388 715.271) rotate(-90)" fill="rgba(152,136,98,0.55)"/>
      <circle id="椭圆_161" data-name="椭圆 161" cx="4.938" cy="4.938" r="4.938" transform="translate(394.877 627.99) rotate(-90)" fill="rgba(152,136,98,0.55)"/>
    </g>
    <g id="组_7" data-name="组 7" transform="translate(3.184 -15)">
      <path id="路径_26" data-name="路径 26" d="M352.949,2608.364c-106.422-116.624-165.967-486.912-70.429-616.812" transform="translate(-804.819 654.608) rotate(-90)" fill="none" stroke="rgba(171,96,32,0.15)" stroke-width="10"/>
      <path id="路径_174" data-name="路径 174" d="M-130.6,835.563c-58.054,101.108-359.161,150.152-531.558-30.4" transform="translate(-393.88 361.596) rotate(-90)" fill="none" stroke="rgba(240,231,197,0.29)" stroke-width="20"/>
      <path id="路径_188" data-name="路径 188" d="M-556.3,723.542c-15,36.234-91.84,68.09-128.074,53.095" transform="translate(-367.174 331.187) rotate(-90)" fill="none" stroke="rgba(188,117,27,0.27)" stroke-width="5"/>
      <path id="路径_197" data-name="路径 197" d="M-488.5,737.256c83.676-119.588,324.3-103.368,401.034,27.032" transform="translate(-318.855 309.485) rotate(-83)" fill="none" stroke="rgba(167,123,39,0.33)" stroke-linecap="round" stroke-width="10"/>
      <path id="路径_245" data-name="路径 245" d="M514,231.421c38.827,70.238,36.331,183.818-14.515,269.775C444.841,593.574,348.363,631.789,302.3,633.081" transform="translate(-196.831 786.253) rotate(-90)" fill="none" stroke="rgba(182,86,25,0.47)" stroke-width="7"/>
      <path id="路径_453" data-name="路径 453" d="M224.5,1720.79c-104.458-95.372-164.77-392.629-69.4-497.09" transform="translate(-540.299 599.543) rotate(-90)" fill="none" stroke="rgba(161,118,41,0.27)" stroke-width="9"/>
      <path id="路径_1036" data-name="路径 1036" d="M260.85,930.681C551.464,949.215,665.633,1276.155,495.8,1498" transform="translate(-488.281 739.694) rotate(-90)" fill="none" stroke="rgba(181,80,24,0.19)" stroke-width="11"/>
      <path id="路径_1567" data-name="路径 1567" d="M321.008,2369.113c-84.484-68-109.208-296.728-41.206-381.213" transform="translate(-801.933 651.355) rotate(-90)" fill="none" stroke="rgba(172,101,32,0.3)" stroke-width="7"/>
      <path id="路径_1568" data-name="路径 1568" d="M363.579,2570.92c51.676,42.37,65.63,183.447,23.256,235.121" transform="translate(-1006.626 693.926) rotate(-90)" fill="none" stroke="rgba(176,56,21,0.24)" stroke-width="10"/>
      <path id="路径_1578" data-name="路径 1578" d="M604.867,1157.65c52.086,95.719-13.353,317.416-109.066,369.5" transform="translate(-517.437 739.694) rotate(-90)" fill="none" stroke="rgba(181,82,24,0.23)" stroke-width="5"/>
      <path id="路径_1966" data-name="路径 1966" d="M430.5,1585.723c2.224,70.43-53.589,163.914-129.944,173.534" transform="translate(-577.176 673.112) rotate(-90)" fill="none" stroke="rgba(174,112,33,0.3)" stroke-width="6"/>
      <path id="路径_1967" data-name="路径 1967" d="M38.716,0C93.989,46.029,63.451,199.008,0,242.016" transform="translate(455.566 520.394) rotate(-107)" fill="none" stroke="rgba(130,122,58,0.34)" stroke-width="13"/>
      <path id="路径_1968" data-name="路径 1968" d="M38.716,242.016c69.786-66.259,39.1-276.81-48.344-358.939" transform="translate(685.849 484.439) rotate(99)" fill="none" stroke="rgba(130,122,58,0.21)" stroke-width="10"/>
      <path id="路径_1969" data-name="路径 1969" d="M168.024,1719.21c-232.046,53.378-471.506-449.265-116.394-741.362" transform="translate(-536.554 540.916) rotate(-90)" fill="none" stroke="rgba(119,129,65,0.38)" stroke-width="10"/>
      <path id="路径_1970" data-name="路径 1970" d="M636.257,1071.752c-24.3-27.333-30.37-65.464-9.111-95.834" transform="translate(-434.955 772.346) rotate(-90)" fill="none" stroke="rgba(189,165,103,0.37)" stroke-width="10"/>
      <path id="路径_1971" data-name="路径 1971" d="M203.279,852.875c231.739-46.544,340.456,103.791,340.456,103.791" transform="translate(-418.643 689.887) rotate(-90)" fill="none" stroke="rgba(69,117,88,0.55)" stroke-width="6" opacity="0.6"/>
      <path id="路径_1972" data-name="路径 1972" d="M48.3,600.131c58.881,13.361,93.264,103.926,53.617,160.317" transform="translate(-324.457 584.795) rotate(-90)" fill="none" stroke="rgba(136,54,20,0.3)" stroke-width="7"/>
      <path id="路径_1973" data-name="路径 1973" d="M41.235,2361.362c-25-113.179,31.585-261.89,148.273-279.437" transform="translate(-892.718 565.353) rotate(-90)" fill="none" stroke="rgba(189,165,103,0.39)" stroke-width="7"/>
      <circle id="椭圆_14" data-name="椭圆 14" cx="8.548" cy="8.548" r="8.548" transform="translate(24.907 280.94) rotate(-90)" fill="#b24117"/>
      <circle id="椭圆_32" data-name="椭圆 32" cx="9.309" cy="9.309" r="9.309" transform="translate(402.133 1032.061) rotate(-90)" fill="#be7c1c"/>
      <circle id="椭圆_37" data-name="椭圆 37" cx="22.438" cy="22.438" r="22.438" transform="translate(413.388 498.723) rotate(-90)" fill="url(#linear-gradient)"/>
      <circle id="椭圆_58" data-name="椭圆 58" cx="7.332" cy="7.332" r="7.332" transform="translate(267.969 543.888) rotate(-90)" fill="#883614"/>
      <circle id="椭圆_66" data-name="椭圆 66" cx="7.763" cy="7.763" r="7.763" transform="translate(348.326 893.95) rotate(-90)" fill="#b8601a"/>
      <circle id="椭圆_92" data-name="椭圆 92" cx="8.095" cy="8.095" r="8.095" transform="matrix(0.259, -0.966, 0.966, 0.259, 1554.929, 336.385)" fill="#b13d16"/>
      <circle id="椭圆_93" data-name="椭圆 93" cx="12.32" cy="12.32" r="12.32" transform="translate(626.343 145.805) rotate(-90)" fill="#bb6b1b"/>
      <circle id="椭圆_100" data-name="椭圆 100" cx="5.558" cy="5.558" r="5.558" transform="translate(799.333 497.76) rotate(-90)" fill="#457558"/>
      <circle id="椭圆_117" data-name="椭圆 117" cx="18.55" cy="18.55" r="18.55" transform="translate(1168.039 397.955) rotate(-90)" fill="url(#linear-gradient-2)"/>
      <circle id="椭圆_121" data-name="椭圆 121" cx="10.716" cy="10.716" r="10.716" transform="translate(1792.514 316.163) rotate(-90)" fill="#af3315"/>
      <circle id="椭圆_126" data-name="椭圆 126" cx="6.36" cy="6.36" r="6.36" transform="translate(533.547 149.993) rotate(-90)" fill="#bda567"/>
      <circle id="椭圆_145" data-name="椭圆 145" cx="7.499" cy="7.499" r="7.499" transform="translate(1002.586 251.479) rotate(-90)" fill="#b03a16"/>
      <circle id="椭圆_163" data-name="椭圆 163" cx="9.251" cy="9.251" r="9.251" transform="translate(675.363 455.291) rotate(-90)" fill="#888539"/>
      <circle id="椭圆_79" data-name="椭圆 79" cx="9.36" cy="9.36" r="9.36" transform="translate(1463.294 532.559) rotate(-90)" fill="rgba(189,165,103,0.92)"/>
    </g>
  </g>
</svg>
